<?xml version="1.0" encoding="UTF-8" standalone="no"?>
<svg
   viewBox="0 0 225.07434 130.22526"
   version="1.1"
   id="svg2"
   sodipodi:docname="skfp-logo-no-text.svg"
   inkscape:export-filename="skfp-logo-no-text.png"
   inkscape:export-xdpi="1536"
   inkscape:export-ydpi="1536"
   width="225.07434"
   height="130.22525"
   xml:space="preserve"
   inkscape:version="1.4 (86a8ad7, 2024-10-11)"
   xmlns:inkscape="http://www.inkscape.org/namespaces/inkscape"
   xmlns:sodipodi="http://sodipodi.sourceforge.net/DTD/sodipodi-0.dtd"
   xmlns="http://www.w3.org/2000/svg"
   xmlns:svg="http://www.w3.org/2000/svg"><defs
     id="defs2"><inkscape:path-effect
       effect="fillet_chamfer"
       id="path-effect6"
       is_visible="true"
       lpeversion="1"
       nodesatellites_param="F,0,0,1,0,3,0,1 @ F,0,0,1,0,3,0,1 @ F,0,0,1,0,3,0,1 @ F,0,0,1,0,3,0,1 @ F,0,0,1,0,3,0,1 @ F,0,0,1,0,3,0,1"
       radius="3"
       unit="px"
       method="auto"
       mode="F"
       chamfer_steps="1"
       flexible="false"
       use_knot_distance="true"
       apply_no_radius="true"
       apply_with_radius="true"
       only_selected="false"
       hide_knots="false" /><inkscape:path-effect
       effect="fillet_chamfer"
       id="path-effect2"
       is_visible="true"
       lpeversion="1"
       nodesatellites_param="F,0,0,1,0,0.24036313,0,1 @ F,0,0,1,0,0.24036313,0,1 @ F,0,0,1,0,0.24036313,0,1 @ F,0,0,1,0,0.24036313,0,1 @ F,0,0,1,0,0.24036313,0,1 @ F,0,0,1,0,0.24036313,0,1"
       radius="2"
       unit="px"
       method="auto"
       mode="F"
       chamfer_steps="1"
       flexible="false"
       use_knot_distance="true"
       apply_no_radius="true"
       apply_with_radius="true"
       only_selected="false"
       hide_knots="false" /><rect
       x="19.28187"
       y="17.794958"
       width="32.520168"
       height="15.060962"
       id="rect9" /><rect
       x="30.313784"
       y="23.214987"
       width="36.213459"
       height="9.7368641"
       id="rect8" /><rect
       x="22.111795"
       y="16.595837"
       width="24.12632"
       height="11.655458"
       id="rect7" /><rect
       x="21.871971"
       y="48.684322"
       width="20.96064"
       height="8.4897785"
       id="rect6" /><inkscape:path-effect
       effect="fillet_chamfer"
       id="path-effect5"
       is_visible="true"
       lpeversion="1"
       nodesatellites_param="F,0,0,1,0,0.24036313,0,1 @ F,0,0,1,0,0.24036313,0,1 @ F,0,0,1,0,0.24036313,0,1 @ F,0,0,1,0,0.24036313,0,1 @ F,0,0,1,0,0.24036313,0,1 @ F,0,0,1,0,0.24036313,0,1"
       radius="2"
       unit="px"
       method="auto"
       mode="F"
       chamfer_steps="1"
       flexible="false"
       use_knot_distance="true"
       apply_no_radius="true"
       apply_with_radius="true"
       only_selected="false"
       hide_knots="false" /><inkscape:path-effect
       effect="fillet_chamfer"
       id="path-effect4"
       is_visible="true"
       lpeversion="1"
       nodesatellites_param="F,0,0,1,0,1.2722862,0,1 @ F,0,0,1,0,1.2722862,0,1 @ F,0,0,1,0,1.2722862,0,1 @ F,0,0,1,0,1.2722862,0,1 @ F,0,0,1,0,1.2722862,0,1 @ F,0,0,1,0,2,0,1 @ F,0,0,1,0,2,0,1"
       radius="3"
       unit="px"
       method="auto"
       mode="F"
       chamfer_steps="1"
       flexible="false"
       use_knot_distance="true"
       apply_no_radius="true"
       apply_with_radius="true"
       only_selected="false"
       hide_knots="false" /></defs><sodipodi:namedview
     id="namedview2"
     pagecolor="#ffffff"
     bordercolor="#000000"
     borderopacity="0.25"
     inkscape:showpageshadow="2"
     inkscape:pageopacity="0.0"
     inkscape:pagecheckerboard="0"
     inkscape:deskcolor="#d1d1d1"
     inkscape:zoom="5.2121504"
     inkscape:cx="88.734968"
     inkscape:cy="56.79038"
     inkscape:window-width="3840"
     inkscape:window-height="2126"
     inkscape:window-x="-11"
     inkscape:window-y="-11"
     inkscape:window-maximized="1"
     inkscape:current-layer="svg2" /><path
     id="path2"
     style="fill:#3499cd;fill-opacity:1;stroke-width:3.02844"
     d="M 49.218398,0.00551657 C 33.114231,0.21694757 18.531102,6.5060376 9.2886013,18.825242 -9.1666697,43.459814 0.73600033,82.883012 31.397256,106.87131 54.68914,125.11465 90.20927,119.87418 108.76363,112.57254 L 84.387235,70.351124 a 3.3953459,3.3953459 0 0 1 0,-3.395016 L 107.53028,26.871156 c -2.70957,-3.377307 -5.76822,-6.494875 -9.2514,-9.216909 C 82.948265,5.6600906 65.322539,-0.20591743 49.218398,0.00551657 Z M 107.53028,26.871156 c 0.78055,0.972905 1.53084,1.967838 2.25184,2.982575 -0.72015,-1.016008 -1.47126,-2.009619 -2.25184,-2.982575 z m 2.25184,2.982575 c 0.721,1.014738 1.41271,2.049329 2.07417,3.103246 -0.66142,-1.053878 -1.35403,-2.087329 -2.07417,-3.103246 z m 2.07417,3.103246 -20.60878,35.696652 23.7213,41.086221 c 2.60925,-1.41835 4.49941,-2.81419 5.41874,-4.03956 5.69603,-7.618018 7.63166,-37.784786 -3.37777,-62.960128 l -15.94061,27.610962 a 3.3950065,3.3950065 0 0 1 -4.63764,1.242599 3.3950065,3.3950065 0 0 1 -1.24262,-4.637615 L 113.3628,35.47936 c -0.48542,-0.850762 -0.9856,-1.69238 -1.50651,-2.522383 z m 3.11252,76.782873 c -0.93686,0.50924 -1.9821,1.01908 -3.10724,1.5264 1.12016,-0.50871 2.17009,-1.01702 3.10724,-1.5264 z m -1.59939,-74.248557 c 0.63325,1.110221 1.23652,2.237202 1.81288,3.376432 -0.57454,-1.140881 -1.17953,-2.265994 -1.81288,-3.376432 z m 1.94683,3.636362 c 0.28084,0.560374 0.55413,1.12411 0.82092,1.690869 -0.26607,-0.567267 -0.54106,-1.129822 -0.82092,-1.690869 z"
     inkscape:export-filename="logo-only.png"
     inkscape:export-xdpi="1536"
     inkscape:export-ydpi="1536" /><path
     id="path4"
     style="fill:#4de288;fill-opacity:1;stroke-width:0.679001;stroke-linecap:square;stroke-linejoin:round;stroke-miterlimit:30"
     d="m 120.91538,7.0819896 a 3.3953459,3.3953459 0 0 0 -2.94014,1.697496 L 107.53028,26.871156 c 1.56112,1.945835 3.00313,3.977988 4.32601,6.085821 l 11.01916,-19.084978 h 63.25586 l 31.62793,54.781604 -31.62793,54.781647 h -63.25586 l -7.90664,-13.6954 c -1.74744,0.94985 -3.84927,1.90557 -6.20518,2.83269 l 9.21161,15.9552 a 3.3953459,3.3953459 0 0 0 2.94014,1.69751 h 67.17601 a 3.3953459,3.3953459 0 0 0 2.94012,-1.69751 l 33.58804,-58.176616 a 3.3953459,3.3953459 0 0 0 0,-3.395016 L 191.03151,8.7794856 a 3.3953459,3.3953459 0 0 0 -2.94012,-1.697496 z m 5.84444,9.3840084 a 3.3950065,3.3950065 0 0 0 -1.32221,0.0862 3.3950065,3.3950065 0 0 0 -2.06086,1.582119 l -10.01392,17.345026 c 1.34448,2.356299 2.56264,4.781268 3.64695,7.260802 l 12.24724,-21.210829 a 3.3950065,3.3950065 0 0 0 -1.24264,-4.63763 3.3950065,3.3950065 0 0 0 -1.25456,-0.425697 z m 55.48845,0 a 3.3950065,3.3950065 0 0 0 -1.25456,0.425697 3.3950065,3.3950065 0 0 0 -1.24261,4.63763 l 28.18649,48.821799 a 3.3950065,3.3950065 0 0 0 4.63763,1.242599 3.3950065,3.3950065 0 0 0 1.24265,-4.637615 L 185.63136,18.134321 a 3.3950065,3.3950065 0 0 0 -2.06222,-1.582118 3.3950065,3.3950065 0 0 0 -1.32087,-0.08621 z M 83.984045,68.459995 a 3.3953459,3.3953459 0 0 0 0,0.387229 3.3953459,3.3953459 0 0 1 0,-0.387229 z m 10.796385,0.02044 a 3.3950065,3.3950065 0 0 0 0.0307,0.460167 3.3950065,3.3950065 0 0 1 -0.0307,-0.460167 z m 0.33154,1.584784 a 3.3950065,3.3950065 0 0 0 0.20426,0.41374 3.3950065,3.3950065 0 0 1 -0.20426,-0.41374 z m 4.84186,1.401765 a 3.3950065,3.3950065 0 0 1 -0.41373,0.204221 3.3950065,3.3950065 0 0 0 0.41373,-0.204221 z m -1.53836,0.505237 a 3.3950065,3.3950065 0 0 1 -0.46017,0.03059 3.3950065,3.3950065 0 0 0 0.46017,-0.03059 z m 27.90142,42.108729 a 3.3950065,3.3950065 0 0 0 -3.39505,3.39501 3.3950065,3.3950065 0 0 0 3.39505,3.395 h 56.37434 a 3.3950065,3.3950065 0 0 0 3.395,-3.395 3.3950065,3.3950065 0 0 0 -3.395,-3.39501 z" /></svg>
