<?xml version="1.0" encoding="UTF-8" standalone="no"?>
<svg
   viewBox="0 0 479.86096 77.479042"
   version="1.1"
   id="svg2"
   sodipodi:docname="scikit-fingerprints-horizontal.svg"
   inkscape:export-filename="skfp-logo-horizontal-text-black.png"
   inkscape:export-xdpi="1536"
   inkscape:export-ydpi="1536"
   width="479.86096"
   height="77.479042"
   xml:space="preserve"
   inkscape:version="1.4 (86a8ad7, 2024-10-11)"
   xmlns:inkscape="http://www.inkscape.org/namespaces/inkscape"
   xmlns:sodipodi="http://sodipodi.sourceforge.net/DTD/sodipodi-0.dtd"
   xmlns="http://www.w3.org/2000/svg"
   xmlns:svg="http://www.w3.org/2000/svg"><defs
     id="defs2"><inkscape:path-effect
       effect="fillet_chamfer"
       id="path-effect6"
       is_visible="true"
       lpeversion="1"
       nodesatellites_param="F,0,0,1,0,3,0,1 @ F,0,0,1,0,3,0,1 @ F,0,0,1,0,3,0,1 @ F,0,0,1,0,3,0,1 @ F,0,0,1,0,3,0,1 @ F,0,0,1,0,3,0,1"
       radius="3"
       unit="px"
       method="auto"
       mode="F"
       chamfer_steps="1"
       flexible="false"
       use_knot_distance="true"
       apply_no_radius="true"
       apply_with_radius="true"
       only_selected="false"
       hide_knots="false" /><inkscape:path-effect
       effect="fillet_chamfer"
       id="path-effect2"
       is_visible="true"
       lpeversion="1"
       nodesatellites_param="F,0,0,1,0,0.24036313,0,1 @ F,0,0,1,0,0.24036313,0,1 @ F,0,0,1,0,0.24036313,0,1 @ F,0,0,1,0,0.24036313,0,1 @ F,0,0,1,0,0.24036313,0,1 @ F,0,0,1,0,0.24036313,0,1"
       radius="2"
       unit="px"
       method="auto"
       mode="F"
       chamfer_steps="1"
       flexible="false"
       use_knot_distance="true"
       apply_no_radius="true"
       apply_with_radius="true"
       only_selected="false"
       hide_knots="false" /><rect
       x="19.28187"
       y="17.794958"
       width="32.520168"
       height="15.060962"
       id="rect9" /><rect
       x="30.313784"
       y="23.214987"
       width="36.213459"
       height="9.7368641"
       id="rect8" /><rect
       x="22.111795"
       y="16.595837"
       width="24.12632"
       height="11.655458"
       id="rect7" /><rect
       x="21.871971"
       y="48.684322"
       width="20.96064"
       height="8.4897785"
       id="rect6" /><inkscape:path-effect
       effect="fillet_chamfer"
       id="path-effect5"
       is_visible="true"
       lpeversion="1"
       nodesatellites_param="F,0,0,1,0,0.24036313,0,1 @ F,0,0,1,0,0.24036313,0,1 @ F,0,0,1,0,0.24036313,0,1 @ F,0,0,1,0,0.24036313,0,1 @ F,0,0,1,0,0.24036313,0,1 @ F,0,0,1,0,0.24036313,0,1"
       radius="2"
       unit="px"
       method="auto"
       mode="F"
       chamfer_steps="1"
       flexible="false"
       use_knot_distance="true"
       apply_no_radius="true"
       apply_with_radius="true"
       only_selected="false"
       hide_knots="false" /><inkscape:path-effect
       effect="fillet_chamfer"
       id="path-effect4"
       is_visible="true"
       lpeversion="1"
       nodesatellites_param="F,0,0,1,0,1.2722862,0,1 @ F,0,0,1,0,1.2722862,0,1 @ F,0,0,1,0,1.2722862,0,1 @ F,0,0,1,0,1.2722862,0,1 @ F,0,0,1,0,1.2722862,0,1 @ F,0,0,1,0,2,0,1 @ F,0,0,1,0,2,0,1"
       radius="3"
       unit="px"
       method="auto"
       mode="F"
       chamfer_steps="1"
       flexible="false"
       use_knot_distance="true"
       apply_no_radius="true"
       apply_with_radius="true"
       only_selected="false"
       hide_knots="false" /></defs><sodipodi:namedview
     id="namedview2"
     pagecolor="#ffffff"
     bordercolor="#000000"
     borderopacity="0.25"
     inkscape:showpageshadow="2"
     inkscape:pageopacity="0.0"
     inkscape:pagecheckerboard="0"
     inkscape:deskcolor="#d1d1d1"
     inkscape:zoom="4"
     inkscape:cx="249.375"
     inkscape:cy="166.25"
     inkscape:window-width="3840"
     inkscape:window-height="2126"
     inkscape:window-x="-11"
     inkscape:window-y="-11"
     inkscape:window-maximized="1"
     inkscape:current-layer="svg2" /><path
     id="path2"
     style="fill:#3499cd;fill-opacity:1;stroke-width:1.80063"
     d="M 29.263893,0.05001875 C 19.688801,0.17573134 11.018079,3.9150483 5.5227449,11.239706 -5.4502475,25.886737 0.43760524,49.326678 18.667936,63.589455 32.516643,74.436441 53.635923,71.3206 64.667832,66.979249 L 50.174306,41.875566 a 2.0187784,2.0187784 0 0 1 0,-2.018584 l 13.76021,-23.8334 C 62.323481,14.015529 60.504893,12.161909 58.433891,10.543464 49.318735,3.4120711 38.838967,-0.07569397 29.263893,0.05001875 Z M 63.934516,16.023582 c 0.464093,0.578463 0.910194,1.170022 1.338882,1.773358 -0.428182,-0.604092 -0.874771,-1.194864 -1.338882,-1.773358 z m 1.338882,1.773358 c 0.428687,0.603335 0.839958,1.218473 1.233244,1.845104 -0.393262,-0.626608 -0.805069,-1.241068 -1.233244,-1.845104 z m 1.233244,1.845104 -12.25341,21.224238 14.104026,24.428727 c 1.551389,-0.84331 2.675226,-1.673239 3.221834,-2.40181 3.386703,-4.529461 4.537575,-22.465785 -2.008328,-37.434345 L 60.092919,41.875566 A 2.0185766,2.0185766 0 0 1 57.335507,42.614379 2.0185766,2.0185766 0 0 1 56.59668,39.856982 L 67.40237,21.141783 c -0.288616,-0.50584 -0.58601,-1.006243 -0.895728,-1.499739 z m 1.850616,45.652965 c -0.55703,0.302782 -1.178501,0.605917 -1.847477,0.907556 0.666017,-0.302465 1.290275,-0.604692 1.847477,-0.907556 z M 67.406305,21.148878 c 0.376515,0.660105 0.735201,1.330178 1.07789,2.007532 -0.341604,-0.678336 -0.701316,-1.347297 -1.07789,-2.007532 z m 1.157533,2.16208 c 0.166978,0.333182 0.32947,0.668363 0.488098,1.005341 -0.1582,-0.337277 -0.321701,-0.671758 -0.488098,-1.005341 z"
     inkscape:export-filename="logo-only.png"
     inkscape:export-xdpi="1536"
     inkscape:export-ydpi="1536" /><path
     id="path4"
     style="fill:#4de288;fill-opacity:1;stroke-width:0.403715;stroke-linecap:square;stroke-linejoin:round;stroke-miterlimit:30"
     d="M 71.892925,4.2574937 A 2.0187784,2.0187784 0 0 0 70.144801,5.2667775 L 63.934516,16.023582 c 0.928198,1.15694 1.785578,2.365201 2.572126,3.618462 L 73.058328,8.2946439 H 110.66853 L 129.47358,40.866267 110.66853,73.437915 H 73.058328 l -4.70107,-8.142906 c -1.038978,0.564755 -2.288668,1.133001 -3.689426,1.68424 l 5.476969,9.486518 a 2.0187784,2.0187784 0 0 0 1.748124,1.009294 h 39.940995 a 2.0187784,2.0187784 0 0 0 1.74812,-1.009294 l 19.9705,-34.590201 a 2.0187784,2.0187784 0 0 0 0,-2.018584 L 113.58204,5.2667775 a 2.0187784,2.0187784 0 0 0 -1.74812,-1.0092838 z m 3.474943,5.5794705 a 2.0185766,2.0185766 0 0 0 -0.78615,0.051252 2.0185766,2.0185766 0 0 0 -1.225331,0.9406838 l -5.953999,10.312873 c 0.799391,1.400989 1.523674,2.842809 2.168376,4.317071 L 76.852633,12.847473 A 2.0185766,2.0185766 0 0 0 76.113794,10.090067 2.0185766,2.0185766 0 0 0 75.367868,9.8369602 Z m 32.991902,0 a 2.0185766,2.0185766 0 0 0 -0.74594,0.2531078 2.0185766,2.0185766 0 0 0 -0.73881,2.757408 l 16.75888,29.028086 a 2.0185766,2.0185766 0 0 0 2.75741,0.738813 2.0185766,2.0185766 0 0 0 0.73885,-2.757397 L 110.37126,10.828903 A 2.0185766,2.0185766 0 0 0 109.1451,9.8882196 2.0185766,2.0185766 0 0 0 108.35977,9.8369572 Z M 49.934582,40.751153 a 2.0187784,2.0187784 0 0 0 0,0.230234 2.0187784,2.0187784 0 0 1 0,-0.230234 z m 6.419226,0.01214 a 2.0185766,2.0185766 0 0 0 0.01826,0.273603 2.0185766,2.0185766 0 0 1 -0.01826,-0.273603 z m 0.197126,0.942268 a 2.0185766,2.0185766 0 0 0 0.121448,0.245998 2.0185766,2.0185766 0 0 1 -0.121448,-0.245998 z m 2.878835,0.833451 a 2.0185766,2.0185766 0 0 1 -0.245993,0.12142 2.0185766,2.0185766 0 0 0 0.245993,-0.12142 z m -0.914666,0.300399 a 2.0185766,2.0185766 0 0 1 -0.273604,0.0182 2.0185766,2.0185766 0 0 0 0.273604,-0.0182 z m 16.589411,25.036693 a 2.0185766,2.0185766 0 0 0 -2.018603,2.018577 2.0185766,2.0185766 0 0 0 2.018603,2.018573 h 33.518616 a 2.0185766,2.0185766 0 0 0 2.01857,-2.018573 2.0185766,2.0185766 0 0 0 -2.01857,-2.018577 z" /><text
     xml:space="preserve"
     style="font-weight:bold;font-size:34.6128px;font-family:'Courier New';-inkscape-font-specification:'Courier New, Bold';text-align:start;letter-spacing:0px;writing-mode:lr-tb;direction:ltr;text-anchor:start;fill:#1a1a1a;fill-opacity:1;fill-rule:evenodd;stroke:#8cf464;stroke-width:14.4219;stroke-linecap:round;stroke-linejoin:round;stroke-miterlimit:30;stroke-dasharray:none;stroke-opacity:1"
     x="151.59856"
     y="21.920313"
     id="text15"><tspan
       sodipodi:role="line"
       id="tspan15"
       x="151.59856"
       y="21.920313"
       style="font-size:34.6128px;fill:#1a1a1a;stroke:none;stroke-width:14.4219">scikit</tspan></text><text
     xml:space="preserve"
     style="font-weight:bold;font-size:46.1502px;font-family:'Courier New';-inkscape-font-specification:'Courier New, Bold';text-align:start;letter-spacing:0px;writing-mode:lr-tb;direction:ltr;text-anchor:start;fill:#1a1a1a;fill-opacity:1;fill-rule:evenodd;stroke:none;stroke-width:14.4219;stroke-linecap:round;stroke-linejoin:round;stroke-miterlimit:30;stroke-dasharray:none;stroke-opacity:1"
     x="150.79292"
     y="67.834373"
     id="text16"><tspan
       sodipodi:role="line"
       id="tspan16"
       x="150.79292"
       y="67.834373"
       style="font-size:46.1502px;fill:#1a1a1a;stroke-width:14.4219">fingerprints</tspan></text></svg>
